<svg width="24" height="24" viewBox="0 0 24 24" fill="none" xmlns="http://www.w3.org/2000/svg">
<path d="M3.75 11.3125H20.25C20.4323 11.3125 20.6072 11.3849 20.7361 11.5139C20.8651 11.6428 20.9375 11.8177 20.9375 12C20.9375 12.1823 20.8651 12.3572 20.7361 12.4861C20.6072 12.6151 20.4323 12.6875 20.25 12.6875H3.75C3.56766 12.6875 3.3928 12.6151 3.26386 12.4861C3.13493 12.3572 3.0625 12.1823 3.0625 12C3.0625 11.8177 3.13493 11.6428 3.26386 11.5139C3.3928 11.3849 3.56766 11.3125 3.75 11.3125Z" fill="white" stroke="white" stroke-width="0.125"/>
<path d="M20.25 6.6875H3.75C3.56766 6.6875 3.3928 6.61507 3.26386 6.48614C3.13493 6.3572 3.0625 6.18234 3.0625 6C3.0625 5.81766 3.13493 5.6428 3.26386 5.51386C3.3928 5.38493 3.56766 5.3125 3.75 5.3125H20.25C20.4323 5.3125 20.6072 5.38493 20.7361 5.51386C20.8651 5.6428 20.9375 5.81766 20.9375 6C20.9375 6.18234 20.8651 6.3572 20.7361 6.48614C20.6072 6.61507 20.4323 6.6875 20.25 6.6875Z" fill="white" stroke="white" stroke-width="0.125"/>
<path d="M20.25 17.25H3.75C3.55109 17.25 3.36032 17.329 3.21967 17.4697C3.07902 17.6103 3 17.8011 3 18C3 18.1989 3.07902 18.3897 3.21967 18.5303C3.36032 18.671 3.55109 18.75 3.75 18.75H20.25C20.4489 18.75 20.6397 18.671 20.7803 18.5303C20.921 18.3897 21 18.1989 21 18C21 17.8011 20.921 17.6103 20.7803 17.4697C20.6397 17.329 20.4489 17.25 20.25 17.25Z" fill="white"/>
</svg>
